<?xml version="1.0" encoding="utf-8"?>
<!-- Generator: Adobe Illustrator 24.0.1, SVG Export Plug-In . SVG Version: 6.00 Build 0)  -->
<svg version="1.1" id="Layer_1" xmlns="http://www.w3.org/2000/svg" xmlns:xlink="http://www.w3.org/1999/xlink" x="0px" y="0px"
	 viewBox="0 0 40 40" style="enable-background:new 0 0 40 40;" xml:space="preserve">
<style type="text/css">
	.st0{clip-path:url(#SVGID_2_);}
	.st1{fill:#737373;}
	.st2{fill:#FAFAFA;}
	.st3{fill:#C9C39F;filter:url(#Adobe_OpacityMaskFilter);}
	.st4{mask:url(#mask0_608_6401_1_);}
	.st5{fill:#D9D9D9;filter:url(#Adobe_OpacityMaskFilter_1_);}
	.st6{mask:url(#mask1_608_6401_1_);}
	.st7{fill:#0B5421;}
	.st8{fill:#D9D9D9;filter:url(#Adobe_OpacityMaskFilter_2_);}
	.st9{mask:url(#mask2_608_6401_1_);}
	.st10{fill:#990C12;}
	.st11{fill:#E8D038;}
	.st12{fill:#FFFAE4;}
	.st13{fill:#1E1C8A;}
	.st14{fill:#E40981;}
	.st15{fill:#FB4C15;}
	.st16{fill:none;stroke:#CFC795;}
	.st17{fill:none;stroke:#262626;}
</style>
<g>
	<g>
		<defs>
			<path id="SVGID_1_" d="M20,0L20,0c11,0,20,9,20,20l0,0c0,11-9,20-20,20l0,0C9,40,0,31,0,20l0,0C0,9,9,0,20,0z"/>
		</defs>
		<clipPath id="SVGID_2_">
			<use xlink:href="#SVGID_1_"  style="overflow:visible;"/>
		</clipPath>
		<g class="st0">
			<path class="st1" d="M20,0L20,0c11,0,20,9,20,20l0,0c0,11-9,20-20,20l0,0C9,40,0,31,0,20l0,0C0,9,9,0,20,0z"/>
			<path class="st2" d="M20.5,26.8c3.7,0,8.1-4.2,8.1-10.3c0-4.9-3.5-8.4-8.1-8.4c-4.6,0-7.9,3.5-7.9,8.4
				C12.6,22.6,16.8,26.8,20.5,26.8z"/>
			<defs>
				<filter id="Adobe_OpacityMaskFilter" filterUnits="userSpaceOnUse" x="11.5" y="7.8" width="18.1" height="7.2">
					<feColorMatrix  type="matrix" values="1 0 0 0 0  0 1 0 0 0  0 0 1 0 0  0 0 0 1 0"/>
				</filter>
			</defs>
			<mask maskUnits="userSpaceOnUse" x="11.5" y="7.8" width="18.1" height="7.2" id="mask0_608_6401_1_">
				<path class="st3" d="M11.6,10.2c0-1.5,0.9-2.7,2.2-3.1C15.6,6.6,18.3,6,20.4,6c2.1,0,4.7,0.6,6.6,1.1c1.3,0.3,2.2,1.6,2.2,3.1
					v4.9c0,0-5.3-0.5-8.8-0.5s-8.8,0.5-8.8,0.5V10.2z"/>
			</mask>
			<g class="st4">
				<defs>
					<filter id="Adobe_OpacityMaskFilter_1_" filterUnits="userSpaceOnUse" x="11.5" y="8" width="18.1" height="7">
						<feColorMatrix  type="matrix" values="1 0 0 0 0  0 1 0 0 0  0 0 1 0 0  0 0 0 1 0"/>
					</filter>
				</defs>
				<mask maskUnits="userSpaceOnUse" x="11.5" y="8" width="18.1" height="7" id="mask1_608_6401_1_">
					<path class="st5" d="M11.6,12.3c0-1.5,1-2.9,2.4-3.2c1.8-0.4,4.4-0.8,6.4-0.8c2,0,4.5,0.4,6.4,0.8c1.4,0.3,2.4,1.6,2.4,3.2v2.8
						c0,0-5.3-0.4-8.8-0.4s-8.8,0.4-8.8,0.4V12.3z"/>
				</mask>
				<g class="st6">
					<path class="st7" d="M13.2,8.1h14.8v6.9H13.2V8.1z"/>
					<defs>
						<filter id="Adobe_OpacityMaskFilter_2_" filterUnits="userSpaceOnUse" x="11.5" y="8" width="18.1" height="7">
							<feColorMatrix  type="matrix" values="1 0 0 0 0  0 1 0 0 0  0 0 1 0 0  0 0 0 1 0"/>
						</filter>
					</defs>
					<mask maskUnits="userSpaceOnUse" x="11.5" y="8" width="18.1" height="7" id="mask2_608_6401_1_">
						<path class="st8" d="M13.2,8.1h14.8v6.9H13.2V8.1z"/>
					</mask>
					<g class="st9">
						<path class="st10" d="M15,8.9l1.7,6.1h-3.4L15,8.9z"/>
						<path class="st10" d="M16.9,14.2L18.6,8h-3.4L16.9,14.2z"/>
						<path class="st10" d="M18.7,8.9l1.7,6.1H17L18.7,8.9z"/>
						<path class="st10" d="M20.5,14.2L22.3,8h-3.4L20.5,14.2z"/>
						<path class="st10" d="M22.4,8.9l1.7,6.1h-3.4L22.4,8.9z"/>
						<path class="st10" d="M24.2,14.2L25.9,8h-3.4L24.2,14.2z"/>
						<path class="st10" d="M26.1,8.9l1.7,6.1h-3.4L26.1,8.9z"/>
						<path class="st10" d="M27.9,14.2L29.6,8h-3.4L27.9,14.2z"/>
						<path class="st10" d="M13.2,14.2L14.9,8h-3.4L13.2,14.2z"/>
						<path class="st11" d="M15,9.9l1.4,5.1h-2.8L15,9.9z"/>
						<path class="st12" d="M16.9,13.1L18.3,8h-2.8L16.9,13.1z"/>
						<path class="st12" d="M18.7,9.9l1.4,5.1h-2.8L18.7,9.9z"/>
						<path class="st13" d="M20.5,13.1L22,8h-2.8L20.5,13.1z"/>
						<path class="st13" d="M22.4,9.9l1.4,5.1H21L22.4,9.9z"/>
						<path class="st11" d="M24.2,13.1L25.7,8h-2.8L24.2,13.1z"/>
						<path class="st11" d="M26.1,9.9l1.4,5.1h-2.8L26.1,9.9z"/>
						<path class="st13" d="M15,10.9l1.1,4.1h-2.3L15,10.9z"/>
						<path class="st14" d="M16.9,12.1L18,8h-2.3L16.9,12.1z"/>
						<path class="st14" d="M18.7,10.9l1.1,4.1h-2.3L18.7,10.9z"/>
						<path class="st15" d="M20.5,12.1L21.7,8h-2.3L20.5,12.1z"/>
						<path class="st15" d="M22.4,10.9l1.1,4.1h-2.3L22.4,10.9z"/>
						<path class="st13" d="M24.2,12.1L25.4,8h-2.3L24.2,12.1z"/>
						<path class="st13" d="M26.1,10.9l1.1,4.1h-2.3L26.1,10.9z"/>
					</g>
				</g>
				<path class="st16" d="M13.1,15V9.6c0-0.1,0-0.1,0.1-0.2c0.5-0.2,2.6-1.1,7.2-1.1c4.7,0,7,1.1,7.4,1.3c0.1,0,0.1,0.1,0.1,0.2V15"
					/>
			</g>
			<path class="st2" d="M31,29.7l-4.7-3.5c-0.4-0.3-1-0.2-1.3,0.1c-0.9,0.8-2.7,2.3-4.6,2.3c-2,0-3.8-1.4-4.7-2.3
				c-0.3-0.4-0.9-0.4-1.3-0.2h0c0,0-0.1,0-0.1,0.1l-5.6,3.5c-1.9,1.2-3,3.2-3,5.5v2.7C5.6,38.5,6,39,6.6,39h26.4
				c0.6,0,1.1-0.5,1.1-1.1v-2.7C34.1,33,33,30.9,31,29.7z"/>
		</g>
	</g>
	<path class="st17" d="M20,0.5L20,0.5c10.8,0,19.5,8.7,19.5,19.5l0,0c0,10.8-8.7,19.5-19.5,19.5l0,0C9.2,39.5,0.5,30.8,0.5,20l0,0
		C0.5,9.2,9.2,0.5,20,0.5z"/>
</g>
</svg>
